<svg width="137" height="46" viewBox="0 0 137 46" fill="none" xmlns="http://www.w3.org/2000/svg">
<path fill-rule="evenodd" clip-rule="evenodd" d="M0.280199 25.7379C1.54418 23.4056 3.01716 21.1771 4.67643 19.0789C4.72104 19.3194 4.79545 19.5364 4.89966 19.7299C5.08187 20.0683 5.32481 20.3554 5.62848 20.5913C5.93216 20.8169 6.26115 21.0117 6.61543 21.1758C6.96972 21.3296 7.31895 21.4731 7.66311 21.6065C8.02753 21.75 8.3717 21.9141 8.69561 22.0987C9.01954 22.273 9.27765 22.4883 9.46998 22.7447C9.67244 22.9908 9.77366 23.3035 9.77366 23.683C9.77366 24.1239 9.66231 24.4777 9.43963 24.7443C9.21693 25.0109 8.93349 25.2109 8.58932 25.3442C8.25529 25.4672 7.91618 25.5287 7.57201 25.5287C7.24809 25.5287 6.91405 25.4826 6.56989 25.3903C6.22572 25.2878 5.89673 25.1596 5.58293 25.0058C5.26914 24.8417 4.99076 24.6725 4.74782 24.4982L4.09492 25.6672C4.38848 25.862 4.72251 26.0517 5.09705 26.2363C5.47158 26.4106 5.87649 26.5542 6.31176 26.667C6.75715 26.7798 7.22279 26.8362 7.70866 26.8362C8.44762 26.8362 9.08533 26.6977 9.62182 26.4209C10.1583 26.144 10.5683 25.7646 10.8517 25.2826C11.1453 24.8007 11.292 24.2675 11.292 23.683C11.292 23.1497 11.2111 22.7037 11.0491 22.3448C10.8973 21.9859 10.6847 21.6834 10.4114 21.4373C10.1482 21.1911 9.84958 20.9861 9.51555 20.822C9.1815 20.6579 8.84239 20.5092 8.49822 20.3759C8.10345 20.2221 7.72385 20.058 7.35943 19.8837C6.99503 19.7094 6.70147 19.5043 6.47877 19.2685C6.25607 19.0223 6.14474 18.725 6.14474 18.3763C6.14474 17.9149 6.31682 17.5457 6.66098 17.2689C7.01527 16.992 7.48598 16.8535 8.07308 16.8535C8.49822 16.8535 8.93349 16.9253 9.37889 17.0689C9.82428 17.2125 10.2342 17.3816 10.6088 17.5765L11.1706 16.4382C10.7556 16.1819 10.2747 15.9665 9.72811 15.7922C9.19162 15.6179 8.56908 15.5307 7.8605 15.5307C7.83234 15.5317 7.80433 15.5328 7.77646 15.5342C17.1315 5.84337 30.8194 -0.19696 46 0.736953C37.1296 5.18789 28.6276 10.5153 22.7043 15.6989C22.8343 15.6717 22.9673 15.6438 23.1033 15.6152L23.1067 15.6145C27.1699 14.761 33.848 13.3583 39.4466 14.9363C31.3324 17.7936 21.9288 21.1335 19.224 24.1741C24.2554 23.5467 31.0512 23.4695 34.8805 25.8827C27.5806 26.3846 18.0122 27.6878 16.6066 29.3867C20.6685 29.4639 27.2025 32.9486 29.2093 35.217C22.6559 34.078 18.9332 33.576 14.3284 34.5317C19.9802 35.3908 22.6268 39.3292 24.2748 41.8003C19.2822 39.9083 15.7147 38.8755 13.4268 38.8079C15.6322 41.0039 16.5478 42.9638 17.7588 45.5562L17.799 45.6421C13.4919 44.1495 8.80016 40.4333 5.31541 36.5294V34.8917H10.0841V39.6861H11.292V28.7513H10.0841V33.5003H5.31541V28.7513H4.09492V35.0935C1.03474 31.3051 -0.715978 27.5738 0.280199 25.7379Z" fill="black"/>
<path d="M58.808 10.2141C58.36 9.9688 57.9013 9.76614 57.432 9.60614C56.9733 9.44614 56.5413 9.36614 56.136 9.36614C55.6347 9.36614 55.24 9.46747 54.952 9.67014C54.664 9.8728 54.52 10.1768 54.52 10.5821C54.52 10.8595 54.6267 11.1101 54.84 11.3341C55.064 11.5475 55.3467 11.7395 55.688 11.9101C56.04 12.0808 56.4027 12.2355 56.776 12.3741C57.1173 12.5021 57.4533 12.6568 57.784 12.8381C58.1253 13.0088 58.4293 13.2275 58.696 13.4941C58.9627 13.7501 59.176 14.0755 59.336 14.4701C59.496 14.8541 59.576 15.3288 59.576 15.8941C59.576 16.4915 59.4213 17.0461 59.112 17.5581C58.8027 18.0701 58.3493 18.4861 57.752 18.8061C57.1547 19.1155 56.4187 19.2701 55.544 19.2701C55.096 19.2701 54.6373 19.2275 54.168 19.1421C53.7093 19.0461 53.256 18.9075 52.808 18.7261C52.36 18.5341 51.928 18.2941 51.512 18.0061L52.536 16.1981C52.8133 16.4008 53.112 16.5821 53.432 16.7421C53.7627 16.8915 54.0933 17.0088 54.424 17.0941C54.7547 17.1795 55.0587 17.2221 55.336 17.2221C55.6133 17.2221 55.8907 17.1848 56.168 17.1101C56.456 17.0248 56.6907 16.8861 56.872 16.6941C57.064 16.5021 57.16 16.2355 57.16 15.8941C57.16 15.6595 57.08 15.4461 56.92 15.2541C56.7707 15.0621 56.5627 14.8861 56.296 14.7261C56.04 14.5661 55.7573 14.4275 55.448 14.3101C55.0853 14.1715 54.712 14.0115 54.328 13.8301C53.944 13.6488 53.5813 13.4301 53.24 13.1741C52.9093 12.9075 52.6373 12.5821 52.424 12.1981C52.2213 11.8035 52.12 11.3235 52.12 10.7581C52.12 10.0755 52.2693 9.48347 52.568 8.98213C52.8773 8.4808 53.3093 8.08613 53.864 7.79813C54.4187 7.49947 55.0587 7.33414 55.784 7.30214C56.7333 7.30214 57.5013 7.41414 58.088 7.63813C58.6853 7.86214 59.2187 8.1288 59.688 8.43814L58.808 10.2141ZM61.4801 19.1421V6.51814H63.7201V19.1421H61.4801ZM65.4961 14.3901L68.6641 19.1421H66.0561L64.0241 15.6701L65.4961 14.3901ZM63.0481 17.2061L62.8241 15.0781L67.0481 11.9741L68.4081 13.1741L63.0481 17.2061ZM70.7745 22.5021L75.4305 12.1501H77.4465L72.9345 22.5021H70.7745ZM72.6465 19.1741L69.2225 12.1501H71.7345L74.3745 18.0541L72.6465 19.1741ZM89.0334 7.36613V19.1421H86.7134V14.3581H81.4494V19.1421H79.1294V7.36613H81.4494V12.1181H86.7134V7.36613H89.0334ZM91.6989 12.1501H93.9389V19.1421H91.6989V12.1501ZM91.6509 9.67014C91.6509 9.33947 91.7789 9.06747 92.0349 8.85414C92.3015 8.6408 92.5842 8.53413 92.8829 8.53413C93.1815 8.53413 93.4535 8.6408 93.6989 8.85414C93.9549 9.06747 94.0829 9.33947 94.0829 9.67014C94.0829 10.0008 93.9549 10.2728 93.6989 10.4861C93.4535 10.6888 93.1815 10.7901 92.8829 10.7901C92.5842 10.7901 92.3015 10.6888 92.0349 10.4861C91.7789 10.2728 91.6509 10.0008 91.6509 9.67014ZM99.8618 22.6621C99.2324 22.6621 98.6991 22.5875 98.2618 22.4381C97.8351 22.2888 97.4724 22.1075 97.1738 21.8941C96.8751 21.6808 96.6084 21.4781 96.3738 21.2861L97.6858 19.7501C97.9311 19.9741 98.2138 20.1875 98.5338 20.3901C98.8644 20.6035 99.2964 20.7101 99.8298 20.7101C100.182 20.7101 100.507 20.6461 100.806 20.5181C101.115 20.4008 101.36 20.2248 101.542 19.9901C101.734 19.7555 101.83 19.4621 101.83 19.1101V17.5741L101.91 17.9741C101.739 18.3368 101.43 18.6568 100.982 18.9341C100.534 19.2008 99.9471 19.3341 99.2218 19.3341C98.5924 19.3341 98.0058 19.1741 97.4618 18.8541C96.9284 18.5235 96.5018 18.0808 96.1818 17.5261C95.8618 16.9608 95.7018 16.3208 95.7018 15.6061C95.7018 14.8701 95.8724 14.2195 96.2138 13.6541C96.5551 13.0781 96.9978 12.6248 97.5418 12.2941C98.0858 11.9635 98.6618 11.7981 99.2698 11.7981C99.8778 11.7981 100.4 11.8888 100.838 12.0701C101.286 12.2408 101.622 12.4541 101.846 12.7101L101.766 12.9181L102.006 12.1501H104.07V19.1421C104.07 19.8248 103.878 20.4275 103.494 20.9501C103.11 21.4835 102.598 21.8995 101.958 22.1981C101.328 22.5075 100.63 22.6621 99.8618 22.6621ZM97.9578 15.5421C97.9578 15.9155 98.0431 16.2515 98.2138 16.5501C98.3844 16.8488 98.6138 17.0835 98.9018 17.2541C99.2004 17.4248 99.5311 17.5101 99.8938 17.5101C100.203 17.5101 100.475 17.4728 100.71 17.3981C100.955 17.3128 101.168 17.1955 101.35 17.0461C101.542 16.8861 101.702 16.6888 101.83 16.4541V14.7421C101.734 14.5075 101.59 14.3101 101.398 14.1501C101.206 13.9795 100.982 13.8515 100.726 13.7661C100.48 13.6701 100.203 13.6221 99.8938 13.6221C99.5311 13.6221 99.2004 13.7075 98.9018 13.8781C98.6138 14.0381 98.3844 14.2621 98.2138 14.5501C98.0431 14.8381 97.9578 15.1688 97.9578 15.5421ZM106.371 19.1421V6.51814H108.563V13.5581L108.547 13.2861C108.792 12.8488 109.139 12.4968 109.587 12.2301C110.035 11.9528 110.584 11.8141 111.235 11.8141C111.896 11.8141 112.445 12.0115 112.883 12.4061C113.331 12.7901 113.56 13.2915 113.571 13.9101V19.1421H111.331V14.7421C111.32 14.4328 111.235 14.1875 111.075 14.0061C110.925 13.8141 110.669 13.7181 110.307 13.7181C109.965 13.7181 109.667 13.8301 109.411 14.0541C109.155 14.2781 108.957 14.5821 108.819 14.9661C108.68 15.3501 108.611 15.7928 108.611 16.2941V19.1421H106.371ZM51.192 35.1421L56.504 22.9021H56.632L61.944 35.1421H59.256L55.864 26.5341L57.544 25.3821L53.48 35.1421H51.192ZM54.824 30.8861H58.36L59.176 32.8381H54.104L54.824 30.8861ZM65.9062 35.3341C65.2556 35.3341 64.6743 35.1848 64.1623 34.8861C63.6503 34.5768 63.2449 34.1341 62.9463 33.5581C62.6583 32.9821 62.5143 32.2995 62.5143 31.5101C62.5143 30.7208 62.6743 30.0488 62.9943 29.4941C63.3143 28.9395 63.7516 28.5181 64.3063 28.2301C64.8609 27.9421 65.4903 27.7981 66.1943 27.7981C66.6423 27.7981 67.0689 27.8675 67.4743 28.0061C67.8903 28.1448 68.2369 28.3581 68.5143 28.6461V29.3501V22.5181H70.7383V35.1421H68.4983V33.7821L68.6743 34.2621C68.3116 34.5608 67.9063 34.8168 67.4583 35.0301C67.0103 35.2328 66.4929 35.3341 65.9062 35.3341ZM66.6423 33.4461C66.9409 33.4461 67.2023 33.4088 67.4263 33.3341C67.6609 33.2488 67.8636 33.1315 68.0343 32.9821C68.2156 32.8221 68.3703 32.6248 68.4983 32.3901V30.6781C68.4129 30.4435 68.2796 30.2461 68.0983 30.0861C67.9276 29.9155 67.7143 29.7875 67.4583 29.7021C67.2129 29.6061 66.9409 29.5581 66.6423 29.5581C66.3116 29.5581 66.0023 29.6435 65.7143 29.8141C65.4369 29.9741 65.2129 30.1981 65.0423 30.4861C64.8716 30.7741 64.7863 31.1048 64.7863 31.4781C64.7863 31.8515 64.8716 32.1875 65.0423 32.4861C65.2129 32.7848 65.4369 33.0195 65.7143 33.1901C66.0023 33.3608 66.3116 33.4461 66.6423 33.4461ZM76.2426 35.2861L72.0506 28.1501H74.7066L77.0906 32.9821L75.7146 32.9341L77.7786 28.1501H80.2746L76.3066 35.2861H76.2426ZM84.7951 35.3341C83.9418 35.3341 83.2165 35.1741 82.6191 34.8541C82.0325 34.5341 81.5845 34.0915 81.2751 33.5261C80.9658 32.9608 80.8111 32.3101 80.8111 31.5741C80.8111 30.8701 80.9925 30.2355 81.3551 29.6701C81.7178 29.1048 82.2031 28.6568 82.8111 28.3261C83.4191 27.9848 84.0965 27.8141 84.8431 27.8141C85.8458 27.8141 86.6671 28.1075 87.3071 28.6941C87.9578 29.2701 88.3791 30.1075 88.5711 31.2061L83.1311 32.9341L82.6351 31.7181L86.5711 30.3901L86.1071 30.5981C86.0218 30.3208 85.8671 30.0808 85.6431 29.8781C85.4298 29.6648 85.1045 29.5581 84.6671 29.5581C84.3365 29.5581 84.0431 29.6381 83.7871 29.7981C83.5418 29.9475 83.3498 30.1661 83.2111 30.4541C83.0831 30.7315 83.0191 31.0621 83.0191 31.4461C83.0191 31.8835 83.0991 32.2515 83.2591 32.5501C83.4191 32.8381 83.6378 33.0568 83.9151 33.2061C84.1925 33.3555 84.5018 33.4301 84.8431 33.4301C85.0885 33.4301 85.3231 33.3875 85.5471 33.3021C85.7818 33.2168 86.0111 33.1048 86.2351 32.9661L87.2271 34.6301C86.8538 34.8435 86.4485 35.0141 86.0111 35.1421C85.5845 35.2701 85.1791 35.3341 84.7951 35.3341ZM92.2309 28.1501L92.4069 29.3981L92.3749 29.2861C92.6202 28.8488 92.9669 28.4968 93.4149 28.2301C93.8629 27.9528 94.4122 27.8141 95.0629 27.8141C95.7242 27.8141 96.2735 28.0115 96.7109 28.4061C97.1589 28.7901 97.3882 29.2915 97.3989 29.9101V35.1421H95.1589V30.7421C95.1482 30.4328 95.0629 30.1875 94.9029 30.0061C94.7535 29.8141 94.4975 29.7181 94.1349 29.7181C93.7935 29.7181 93.4949 29.8301 93.2389 30.0541C92.9829 30.2781 92.7855 30.5821 92.6469 30.9661C92.5082 31.3501 92.4389 31.7928 92.4389 32.2941V35.1421H90.1989V28.1501H92.2309ZM100.355 25.0781H102.595V28.1181H104.291V29.8621H102.595V35.1421H100.355V29.8621H99.2669V28.1181H100.355V25.0781ZM108.252 35.4781C107.622 35.4781 107.094 35.2861 106.668 34.9021C106.241 34.5075 106.017 34.0008 105.996 33.3821V28.1501H108.236V32.5501C108.257 32.8595 108.337 33.1101 108.476 33.3021C108.614 33.4835 108.849 33.5741 109.18 33.5741C109.51 33.5741 109.793 33.4621 110.028 33.2381C110.273 33.0141 110.46 32.7101 110.588 32.3261C110.726 31.9315 110.796 31.4888 110.796 30.9981V28.1501H113.036V35.1421H111.004L110.828 33.8621L110.86 34.0061C110.7 34.2941 110.497 34.5501 110.252 34.7741C110.006 34.9981 109.713 35.1688 109.372 35.2861C109.041 35.4141 108.668 35.4781 108.252 35.4781ZM117.356 28.1501L117.564 30.0701L117.516 29.7821C117.718 29.3661 117.996 29.0141 118.348 28.7261C118.7 28.4275 119.046 28.1981 119.388 28.0381C119.74 27.8781 120.006 27.7981 120.188 27.7981L120.076 30.0381C119.553 29.9741 119.105 30.0595 118.732 30.2941C118.358 30.5288 118.07 30.8381 117.868 31.2221C117.665 31.6061 117.564 32.0008 117.564 32.4061V35.1421H115.34V28.1501H117.356ZM125.03 35.3341C124.176 35.3341 123.451 35.1741 122.854 34.8541C122.267 34.5341 121.819 34.0915 121.51 33.5261C121.2 32.9608 121.046 32.3101 121.046 31.5741C121.046 30.8701 121.227 30.2355 121.59 29.6701C121.952 29.1048 122.438 28.6568 123.046 28.3261C123.654 27.9848 124.331 27.8141 125.078 27.8141C126.08 27.8141 126.902 28.1075 127.542 28.6941C128.192 29.2701 128.613 30.1075 128.806 31.2061L123.366 32.9341L122.87 31.7181L126.806 30.3901L126.342 30.5981C126.256 30.3208 126.102 30.0808 125.878 29.8781C125.664 29.6648 125.339 29.5581 124.902 29.5581C124.571 29.5581 124.278 29.6381 124.022 29.7981C123.776 29.9475 123.584 30.1661 123.446 30.4541C123.318 30.7315 123.254 31.0621 123.254 31.4461C123.254 31.8835 123.334 32.2515 123.494 32.5501C123.654 32.8381 123.872 33.0568 124.15 33.2061C124.427 33.3555 124.736 33.4301 125.078 33.4301C125.323 33.4301 125.558 33.3875 125.782 33.3021C126.016 33.2168 126.246 33.1048 126.47 32.9661L127.462 34.6301C127.088 34.8435 126.683 35.0141 126.246 35.1421C125.819 35.2701 125.414 35.3341 125.03 35.3341ZM132.705 35.2861C132.129 35.2861 131.591 35.1848 131.089 34.9821C130.599 34.7795 130.183 34.4968 129.841 34.1341L130.769 32.9021C131.111 33.2115 131.425 33.4355 131.713 33.5741C132.012 33.7021 132.279 33.7661 132.513 33.7661C132.695 33.7661 132.855 33.7501 132.993 33.7181C133.143 33.6755 133.26 33.6168 133.345 33.5421C133.431 33.4568 133.473 33.3501 133.473 33.2221C133.473 33.0408 133.399 32.8968 133.249 32.7901C133.111 32.6835 132.929 32.5981 132.705 32.5341C132.481 32.4595 132.241 32.3848 131.985 32.3101C131.345 32.1075 130.881 31.8141 130.593 31.4301C130.316 31.0355 130.177 30.6088 130.177 30.1501C130.177 29.7981 130.268 29.4461 130.449 29.0941C130.641 28.7315 130.94 28.4328 131.345 28.1981C131.761 27.9528 132.295 27.8301 132.945 27.8301C133.532 27.8301 134.028 27.8888 134.433 28.0061C134.839 28.1235 135.223 28.3155 135.585 28.5821L134.737 29.8941C134.535 29.7341 134.305 29.6008 134.049 29.4941C133.804 29.3768 133.575 29.3128 133.361 29.3021C133.169 29.2915 133.004 29.3128 132.865 29.3661C132.737 29.4195 132.636 29.4888 132.561 29.5741C132.487 29.6595 132.449 29.7501 132.449 29.8461C132.439 30.0488 132.513 30.2088 132.673 30.3261C132.844 30.4435 133.057 30.5341 133.313 30.5981C133.569 30.6621 133.82 30.7368 134.065 30.8221C134.407 30.9288 134.7 31.0728 134.945 31.2541C135.191 31.4355 135.377 31.6541 135.505 31.9101C135.644 32.1555 135.713 32.4541 135.713 32.8061C135.713 33.2328 135.601 33.6381 135.377 34.0221C135.164 34.3955 134.833 34.6995 134.385 34.9341C133.948 35.1688 133.388 35.2861 132.705 35.2861Z" fill="black"/>
</svg>
