<svg width="46" height="46" viewBox="0 0 46 46" fill="none" xmlns="http://www.w3.org/2000/svg">
<path fill-rule="evenodd" clip-rule="evenodd" d="M0.280199 25.2379C1.54418 22.9056 3.01716 20.6771 4.67643 18.5789C4.72104 18.8194 4.79545 19.0364 4.89966 19.2299C5.08187 19.5683 5.32481 19.8554 5.62848 20.0913C5.93216 20.3169 6.26115 20.5117 6.61543 20.6758C6.96972 20.8296 7.31895 20.9731 7.66311 21.1065C8.02753 21.25 8.3717 21.4141 8.69561 21.5987C9.01954 21.773 9.27765 21.9883 9.46998 22.2447C9.67244 22.4908 9.77366 22.8035 9.77366 23.183C9.77366 23.6239 9.66231 23.9777 9.43963 24.2443C9.21693 24.5109 8.93349 24.7109 8.58932 24.8442C8.25529 24.9672 7.91618 25.0287 7.57201 25.0287C7.24809 25.0287 6.91405 24.9826 6.56989 24.8903C6.22572 24.7878 5.89673 24.6596 5.58293 24.5058C5.26914 24.3417 4.99076 24.1725 4.74782 23.9982L4.09492 25.1672C4.38848 25.362 4.72251 25.5517 5.09705 25.7363C5.47158 25.9106 5.87649 26.0542 6.31176 26.167C6.75715 26.2798 7.22279 26.3362 7.70866 26.3362C8.44762 26.3362 9.08533 26.1977 9.62182 25.9209C10.1583 25.644 10.5683 25.2646 10.8517 24.7826C11.1453 24.3007 11.292 23.7675 11.292 23.183C11.292 22.6497 11.2111 22.2037 11.0491 21.8448C10.8973 21.4859 10.6847 21.1834 10.4114 20.9373C10.1482 20.6911 9.84958 20.4861 9.51555 20.322C9.1815 20.1579 8.84239 20.0092 8.49822 19.8759C8.10345 19.7221 7.72385 19.558 7.35943 19.3837C6.99503 19.2094 6.70147 19.0043 6.47877 18.7685C6.25607 18.5223 6.14474 18.225 6.14474 17.8763C6.14474 17.4149 6.31682 17.0457 6.66098 16.7689C7.01527 16.492 7.48598 16.3535 8.07308 16.3535C8.49822 16.3535 8.93349 16.4253 9.37889 16.5689C9.82428 16.7125 10.2342 16.8816 10.6088 17.0765L11.1706 15.9382C10.7556 15.6819 10.2747 15.4665 9.72811 15.2922C9.19162 15.1179 8.56908 15.0307 7.8605 15.0307C7.83234 15.0317 7.80433 15.0328 7.77646 15.0342C17.1315 5.34337 30.8194 -0.69696 46 0.236953C37.1296 4.68789 28.6276 10.0153 22.7043 15.1989C22.8343 15.1717 22.9673 15.1438 23.1033 15.1152L23.1067 15.1145C27.1699 14.261 33.848 12.8583 39.4466 14.4363C31.3324 17.2936 21.9288 20.6335 19.224 23.6741C24.2554 23.0467 31.0512 22.9695 34.8805 25.3827C27.5806 25.8846 18.0122 27.1878 16.6066 28.8867C20.6685 28.9639 27.2025 32.4486 29.2093 34.717C22.6559 33.578 18.9332 33.076 14.3284 34.0317C19.9802 34.8908 22.6268 38.8292 24.2748 41.3003C19.2822 39.4083 15.7147 38.3755 13.4268 38.3079C15.6322 40.5039 16.5478 42.4638 17.7588 45.0562L17.799 45.1421C13.4919 43.6495 8.80016 39.9333 5.31541 36.0294V34.3917H10.0841V39.1861H11.292V28.2513H10.0841V33.0003H5.31541V28.2513H4.09492V34.5935C1.03474 30.8051 -0.715978 27.0738 0.280199 25.2379Z" fill="black"/>
</svg>
