<svg width="138" height="45" viewBox="0 0 138 45" fill="none" xmlns="http://www.w3.org/2000/svg">
<path fill-rule="evenodd" clip-rule="evenodd" d="M10.2802 25.0958C11.5442 22.7635 13.0172 20.535 14.6764 18.4367C14.721 18.6772 14.7954 18.8942 14.8997 19.0878C15.0819 19.4262 15.3248 19.7133 15.6285 19.9491C15.9322 20.1747 16.2611 20.3696 16.6154 20.5336C16.9697 20.6874 17.3189 20.831 17.6631 20.9643C18.0275 21.1079 18.3717 21.2719 18.6956 21.4565C19.0195 21.6308 19.2777 21.8462 19.47 22.1026C19.6724 22.3487 19.7737 22.6614 19.7737 23.0408C19.7737 23.4818 19.6623 23.8355 19.4396 24.1022C19.2169 24.3688 18.9335 24.5687 18.5893 24.702C18.2553 24.8251 17.9162 24.8866 17.572 24.8866C17.2481 24.8866 16.9141 24.8405 16.5699 24.7482C16.2257 24.6456 15.8967 24.5175 15.5829 24.3636C15.2691 24.1996 14.9908 24.0304 14.7478 23.8561L14.0949 25.025C14.3885 25.2199 14.7225 25.4096 15.097 25.5942C15.4716 25.7685 15.8765 25.9121 16.3118 26.0248C16.7572 26.1376 17.2228 26.194 17.7087 26.194C18.4476 26.194 19.0853 26.0556 19.6218 25.7787C20.1583 25.5019 20.5683 25.1225 20.8517 24.6405C21.1453 24.1586 21.292 23.6253 21.292 23.0408C21.292 22.5076 21.2111 22.0615 21.0491 21.7026C20.8973 21.3437 20.6847 21.0412 20.4114 20.7951C20.1482 20.549 19.8496 20.3439 19.5155 20.1799C19.1815 20.0158 18.8424 19.8671 18.4982 19.7338C18.1034 19.58 17.7239 19.4159 17.3594 19.2416C16.995 19.0673 16.7015 18.8622 16.4788 18.6263C16.2561 18.3802 16.1447 18.0828 16.1447 17.7342C16.1447 17.2727 16.3168 16.9036 16.661 16.6267C17.0153 16.3498 17.486 16.2114 18.0731 16.2114C18.4982 16.2114 18.9335 16.2832 19.3789 16.4268C19.8243 16.5703 20.2342 16.7395 20.6088 16.9343L21.1706 15.7961C20.7556 15.5398 20.2747 15.3244 19.7281 15.1501C19.1916 14.9758 18.5691 14.8886 17.8605 14.8886C17.8323 14.8895 17.8043 14.8907 17.7765 14.8921C27.1315 5.20123 40.8194 -0.839095 56 0.0948169C47.1296 4.54576 38.6276 9.87318 32.7043 15.0568C32.8343 15.0296 32.9673 15.0016 33.1033 14.9731L33.1067 14.9724C37.1699 14.1189 43.848 12.7161 49.4466 14.2942C41.3324 17.1514 31.9288 20.4913 29.224 23.532C34.2554 22.9046 41.0512 22.8273 44.8805 25.2406C37.5806 25.7425 28.0122 27.0456 26.6066 28.7446C30.6685 28.8218 37.2025 32.3065 39.2093 34.5749C32.6559 33.4359 28.9332 32.9339 24.3284 33.8895C29.9802 34.7486 32.6268 38.687 34.2748 41.1582C29.2822 39.2662 25.7147 38.2333 23.4268 38.1658C25.6322 40.3617 26.5478 42.3216 27.7588 44.9141L27.799 45C23.4919 43.5073 18.8002 39.7911 15.3154 35.8872V34.2496H20.0841V39.044H21.292V28.1092H20.0841V32.8582H15.3154V28.1092H14.0949V34.4514C11.0347 30.663 9.28402 26.9316 10.2802 25.0958Z" fill="black"/>
<path d="M59.808 9.572C59.36 9.32667 58.9013 9.124 58.432 8.964C57.9733 8.804 57.5413 8.724 57.136 8.724C56.6347 8.724 56.24 8.82533 55.952 9.028C55.664 9.23067 55.52 9.53467 55.52 9.94C55.52 10.2173 55.6267 10.468 55.84 10.692C56.064 10.9053 56.3467 11.0973 56.688 11.268C57.04 11.4387 57.4027 11.5933 57.776 11.732C58.1173 11.86 58.4533 12.0147 58.784 12.196C59.1253 12.3667 59.4293 12.5853 59.696 12.852C59.9627 13.108 60.176 13.4333 60.336 13.828C60.496 14.212 60.576 14.6867 60.576 15.252C60.576 15.8493 60.4213 16.404 60.112 16.916C59.8027 17.428 59.3493 17.844 58.752 18.164C58.1547 18.4733 57.4187 18.628 56.544 18.628C56.096 18.628 55.6373 18.5853 55.168 18.5C54.7093 18.404 54.256 18.2653 53.808 18.084C53.36 17.892 52.928 17.652 52.512 17.364L53.536 15.556C53.8133 15.7587 54.112 15.94 54.432 16.1C54.7627 16.2493 55.0933 16.3667 55.424 16.452C55.7547 16.5373 56.0587 16.58 56.336 16.58C56.6133 16.58 56.8907 16.5427 57.168 16.468C57.456 16.3827 57.6907 16.244 57.872 16.052C58.064 15.86 58.16 15.5933 58.16 15.252C58.16 15.0173 58.08 14.804 57.92 14.612C57.7707 14.42 57.5627 14.244 57.296 14.084C57.04 13.924 56.7573 13.7853 56.448 13.668C56.0853 13.5293 55.712 13.3693 55.328 13.188C54.944 13.0067 54.5813 12.788 54.24 12.532C53.9093 12.2653 53.6373 11.94 53.424 11.556C53.2213 11.1613 53.12 10.6813 53.12 10.116C53.12 9.43333 53.2693 8.84133 53.568 8.34C53.8773 7.83867 54.3093 7.444 54.864 7.156C55.4187 6.85733 56.0587 6.692 56.784 6.66C57.7333 6.66 58.5013 6.772 59.088 6.996C59.6853 7.22 60.2187 7.48667 60.688 7.796L59.808 9.572ZM62.4801 18.5V5.876H64.7201V18.5H62.4801ZM66.4961 13.748L69.6641 18.5H67.0561L65.0241 15.028L66.4961 13.748ZM64.0481 16.564L63.8241 14.436L68.0481 11.332L69.4081 12.532L64.0481 16.564ZM71.7745 21.86L76.4305 11.508H78.4465L73.9345 21.86H71.7745ZM73.6465 18.532L70.2225 11.508H72.7345L75.3745 17.412L73.6465 18.532ZM90.0334 6.724V18.5H87.7134V13.716H82.4494V18.5H80.1294V6.724H82.4494V11.476H87.7134V6.724H90.0334ZM92.6989 11.508H94.9389V18.5H92.6989V11.508ZM92.6509 9.028C92.6509 8.69733 92.7789 8.42533 93.0349 8.212C93.3015 7.99867 93.5842 7.892 93.8829 7.892C94.1815 7.892 94.4535 7.99867 94.6989 8.212C94.9549 8.42533 95.0829 8.69733 95.0829 9.028C95.0829 9.35867 94.9549 9.63067 94.6989 9.844C94.4535 10.0467 94.1815 10.148 93.8829 10.148C93.5842 10.148 93.3015 10.0467 93.0349 9.844C92.7789 9.63067 92.6509 9.35867 92.6509 9.028ZM100.862 22.02C100.232 22.02 99.6991 21.9453 99.2618 21.796C98.8351 21.6467 98.4724 21.4653 98.1738 21.252C97.8751 21.0387 97.6084 20.836 97.3738 20.644L98.6858 19.108C98.9311 19.332 99.2138 19.5453 99.5338 19.748C99.8644 19.9613 100.296 20.068 100.83 20.068C101.182 20.068 101.507 20.004 101.806 19.876C102.115 19.7587 102.36 19.5827 102.542 19.348C102.734 19.1133 102.83 18.82 102.83 18.468V16.932L102.91 17.332C102.739 17.6947 102.43 18.0147 101.982 18.292C101.534 18.5587 100.947 18.692 100.222 18.692C99.5924 18.692 99.0058 18.532 98.4618 18.212C97.9284 17.8813 97.5018 17.4387 97.1818 16.884C96.8618 16.3187 96.7018 15.6787 96.7018 14.964C96.7018 14.228 96.8724 13.5773 97.2138 13.012C97.5551 12.436 97.9978 11.9827 98.5418 11.652C99.0858 11.3213 99.6618 11.156 100.27 11.156C100.878 11.156 101.4 11.2467 101.838 11.428C102.286 11.5987 102.622 11.812 102.846 12.068L102.766 12.276L103.006 11.508H105.07V18.5C105.07 19.1827 104.878 19.7853 104.494 20.308C104.11 20.8413 103.598 21.2573 102.958 21.556C102.328 21.8653 101.63 22.02 100.862 22.02ZM98.9578 14.9C98.9578 15.2733 99.0431 15.6093 99.2138 15.908C99.3844 16.2067 99.6138 16.4413 99.9018 16.612C100.2 16.7827 100.531 16.868 100.894 16.868C101.203 16.868 101.475 16.8307 101.71 16.756C101.955 16.6707 102.168 16.5533 102.35 16.404C102.542 16.244 102.702 16.0467 102.83 15.812V14.1C102.734 13.8653 102.59 13.668 102.398 13.508C102.206 13.3373 101.982 13.2093 101.726 13.124C101.48 13.028 101.203 12.98 100.894 12.98C100.531 12.98 100.2 13.0653 99.9018 13.236C99.6138 13.396 99.3844 13.62 99.2138 13.908C99.0431 14.196 98.9578 14.5267 98.9578 14.9ZM107.371 18.5V5.876H109.563V12.916L109.547 12.644C109.792 12.2067 110.139 11.8547 110.587 11.588C111.035 11.3107 111.584 11.172 112.235 11.172C112.896 11.172 113.445 11.3693 113.883 11.764C114.331 12.148 114.56 12.6493 114.571 13.268V18.5H112.331V14.1C112.32 13.7907 112.235 13.5453 112.075 13.364C111.925 13.172 111.669 13.076 111.307 13.076C110.965 13.076 110.667 13.188 110.411 13.412C110.155 13.636 109.957 13.94 109.819 14.324C109.68 14.708 109.611 15.1507 109.611 15.652V18.5H107.371ZM52.192 34.5L57.504 22.26H57.632L62.944 34.5H60.256L56.864 25.892L58.544 24.74L54.48 34.5H52.192ZM55.824 30.244H59.36L60.176 32.196H55.104L55.824 30.244ZM66.9062 34.692C66.2556 34.692 65.6743 34.5427 65.1623 34.244C64.6503 33.9347 64.2449 33.492 63.9463 32.916C63.6583 32.34 63.5143 31.6573 63.5143 30.868C63.5143 30.0787 63.6743 29.4067 63.9943 28.852C64.3143 28.2973 64.7516 27.876 65.3063 27.588C65.8609 27.3 66.4903 27.156 67.1943 27.156C67.6423 27.156 68.0689 27.2253 68.4743 27.364C68.8903 27.5027 69.2369 27.716 69.5143 28.004V28.708V21.876H71.7383V34.5H69.4983V33.14L69.6743 33.62C69.3116 33.9187 68.9063 34.1747 68.4583 34.388C68.0103 34.5907 67.4929 34.692 66.9062 34.692ZM67.6423 32.804C67.9409 32.804 68.2023 32.7667 68.4263 32.692C68.6609 32.6067 68.8636 32.4893 69.0343 32.34C69.2156 32.18 69.3703 31.9827 69.4983 31.748V30.036C69.4129 29.8013 69.2796 29.604 69.0983 29.444C68.9276 29.2733 68.7143 29.1453 68.4583 29.06C68.2129 28.964 67.9409 28.916 67.6423 28.916C67.3116 28.916 67.0023 29.0013 66.7143 29.172C66.4369 29.332 66.2129 29.556 66.0423 29.844C65.8716 30.132 65.7863 30.4627 65.7863 30.836C65.7863 31.2093 65.8716 31.5453 66.0423 31.844C66.2129 32.1427 66.4369 32.3773 66.7143 32.548C67.0023 32.7187 67.3116 32.804 67.6423 32.804ZM77.2426 34.644L73.0506 27.508H75.7066L78.0906 32.34L76.7146 32.292L78.7786 27.508H81.2746L77.3066 34.644H77.2426ZM85.7951 34.692C84.9418 34.692 84.2165 34.532 83.6191 34.212C83.0325 33.892 82.5845 33.4493 82.2751 32.884C81.9658 32.3187 81.8111 31.668 81.8111 30.932C81.8111 30.228 81.9925 29.5933 82.3551 29.028C82.7178 28.4627 83.2031 28.0147 83.8111 27.684C84.4191 27.3427 85.0965 27.172 85.8431 27.172C86.8458 27.172 87.6671 27.4653 88.3071 28.052C88.9578 28.628 89.3791 29.4653 89.5711 30.564L84.1311 32.292L83.6351 31.076L87.5711 29.748L87.1071 29.956C87.0218 29.6787 86.8671 29.4387 86.6431 29.236C86.4298 29.0227 86.1045 28.916 85.6671 28.916C85.3365 28.916 85.0431 28.996 84.7871 29.156C84.5418 29.3053 84.3498 29.524 84.2111 29.812C84.0831 30.0893 84.0191 30.42 84.0191 30.804C84.0191 31.2413 84.0991 31.6093 84.2591 31.908C84.4191 32.196 84.6378 32.4147 84.9151 32.564C85.1925 32.7133 85.5018 32.788 85.8431 32.788C86.0885 32.788 86.3231 32.7453 86.5471 32.66C86.7818 32.5747 87.0111 32.4627 87.2351 32.324L88.2271 33.988C87.8538 34.2013 87.4485 34.372 87.0111 34.5C86.5845 34.628 86.1791 34.692 85.7951 34.692ZM93.2309 27.508L93.4069 28.756L93.3749 28.644C93.6202 28.2067 93.9669 27.8547 94.4149 27.588C94.8629 27.3107 95.4122 27.172 96.0629 27.172C96.7242 27.172 97.2735 27.3693 97.7109 27.764C98.1589 28.148 98.3882 28.6493 98.3989 29.268V34.5H96.1589V30.1C96.1482 29.7907 96.0629 29.5453 95.9029 29.364C95.7535 29.172 95.4975 29.076 95.1349 29.076C94.7935 29.076 94.4949 29.188 94.2389 29.412C93.9829 29.636 93.7855 29.94 93.6469 30.324C93.5082 30.708 93.4389 31.1507 93.4389 31.652V34.5H91.1989V27.508H93.2309ZM101.355 24.436H103.595V27.476H105.291V29.22H103.595V34.5H101.355V29.22H100.267V27.476H101.355V24.436ZM109.252 34.836C108.622 34.836 108.094 34.644 107.668 34.26C107.241 33.8653 107.017 33.3587 106.996 32.74V27.508H109.236V31.908C109.257 32.2173 109.337 32.468 109.476 32.66C109.614 32.8413 109.849 32.932 110.18 32.932C110.51 32.932 110.793 32.82 111.028 32.596C111.273 32.372 111.46 32.068 111.588 31.684C111.726 31.2893 111.796 30.8467 111.796 30.356V27.508H114.036V34.5H112.004L111.828 33.22L111.86 33.364C111.7 33.652 111.497 33.908 111.252 34.132C111.006 34.356 110.713 34.5267 110.372 34.644C110.041 34.772 109.668 34.836 109.252 34.836ZM118.356 27.508L118.564 29.428L118.516 29.14C118.718 28.724 118.996 28.372 119.348 28.084C119.7 27.7853 120.046 27.556 120.388 27.396C120.74 27.236 121.006 27.156 121.188 27.156L121.076 29.396C120.553 29.332 120.105 29.4173 119.732 29.652C119.358 29.8867 119.07 30.196 118.868 30.58C118.665 30.964 118.564 31.3587 118.564 31.764V34.5H116.34V27.508H118.356ZM126.03 34.692C125.176 34.692 124.451 34.532 123.854 34.212C123.267 33.892 122.819 33.4493 122.51 32.884C122.2 32.3187 122.046 31.668 122.046 30.932C122.046 30.228 122.227 29.5933 122.59 29.028C122.952 28.4627 123.438 28.0147 124.046 27.684C124.654 27.3427 125.331 27.172 126.078 27.172C127.08 27.172 127.902 27.4653 128.542 28.052C129.192 28.628 129.613 29.4653 129.806 30.564L124.366 32.292L123.87 31.076L127.806 29.748L127.342 29.956C127.256 29.6787 127.102 29.4387 126.878 29.236C126.664 29.0227 126.339 28.916 125.902 28.916C125.571 28.916 125.278 28.996 125.022 29.156C124.776 29.3053 124.584 29.524 124.446 29.812C124.318 30.0893 124.254 30.42 124.254 30.804C124.254 31.2413 124.334 31.6093 124.494 31.908C124.654 32.196 124.872 32.4147 125.15 32.564C125.427 32.7133 125.736 32.788 126.078 32.788C126.323 32.788 126.558 32.7453 126.782 32.66C127.016 32.5747 127.246 32.4627 127.47 32.324L128.462 33.988C128.088 34.2013 127.683 34.372 127.246 34.5C126.819 34.628 126.414 34.692 126.03 34.692ZM133.705 34.644C133.129 34.644 132.591 34.5427 132.089 34.34C131.599 34.1373 131.183 33.8547 130.841 33.492L131.769 32.26C132.111 32.5693 132.425 32.7933 132.713 32.932C133.012 33.06 133.279 33.124 133.513 33.124C133.695 33.124 133.855 33.108 133.993 33.076C134.143 33.0333 134.26 32.9747 134.345 32.9C134.431 32.8147 134.473 32.708 134.473 32.58C134.473 32.3987 134.399 32.2547 134.249 32.148C134.111 32.0413 133.929 31.956 133.705 31.892C133.481 31.8173 133.241 31.7427 132.985 31.668C132.345 31.4653 131.881 31.172 131.593 30.788C131.316 30.3933 131.177 29.9667 131.177 29.508C131.177 29.156 131.268 28.804 131.449 28.452C131.641 28.0893 131.94 27.7907 132.345 27.556C132.761 27.3107 133.295 27.188 133.945 27.188C134.532 27.188 135.028 27.2467 135.433 27.364C135.839 27.4813 136.223 27.6733 136.585 27.94L135.737 29.252C135.535 29.092 135.305 28.9587 135.049 28.852C134.804 28.7347 134.575 28.6707 134.361 28.66C134.169 28.6493 134.004 28.6707 133.865 28.724C133.737 28.7773 133.636 28.8467 133.561 28.932C133.487 29.0173 133.449 29.108 133.449 29.204C133.439 29.4067 133.513 29.5667 133.673 29.684C133.844 29.8013 134.057 29.892 134.313 29.956C134.569 30.02 134.82 30.0947 135.065 30.18C135.407 30.2867 135.7 30.4307 135.945 30.612C136.191 30.7933 136.377 31.012 136.505 31.268C136.644 31.5133 136.713 31.812 136.713 32.164C136.713 32.5907 136.601 32.996 136.377 33.38C136.164 33.7533 135.833 34.0573 135.385 34.292C134.948 34.5267 134.388 34.644 133.705 34.644Z" fill="black"/>
</svg>
